<svg width="1440" height="558" viewBox="0 0 1440 558" fill="none" xmlns="http://www.w3.org/2000/svg">
<g clip-path="url(#clip0)">
<rect width="1440" height="558" fill="#1F1E24"/>
<path d="M215.295 227.532H256.381L357.377 210.42L401.879 227.532L569.256 385.941L653.997 430.888L899.464 614.949L1194.52 708.73L1451.31 794.74V985.222H-312V495.099C-312 495.099 -187.02 407.323 -145.933 398.783C-104.847 390.243 18.4131 355.954 18.4131 355.954L175.903 272.48L215.295 227.532Z" fill="url(#paint0_linear)"/>
<path d="M1687 131L1558.75 261.416C1558.75 261.416 1412.25 291.364 1387.52 289.593C1362.79 287.822 1333.23 310.739 1333.23 310.739L1199.34 388.291H1159.93L1064.09 363.603H1031.68L957.355 398.864H920.72L904.527 407.666L874.658 383.005L823.458 356.572L811.853 340.713L770.335 335.427L753.846 314.281L725.625 321.312L661.045 361.859L627.222 375.947L545.476 397.093L472.186 451.728C472.186 451.728 355.919 517.069 318.101 524.047C280.283 531.025 177.651 531.025 177.651 531.025L75.5693 558.699V922.221H1687V131Z" fill="#363345"/>
<g style="mix-blend-mode:overlay" opacity="0.08">
<path d="M683.459 384.496L632.341 410.912C632.341 410.912 614.378 459.781 595.359 479.593C576.34 499.405 503.434 537.708 503.434 537.708L447.434 612.993L354.452 771.091L317.006 901.374H468.65L578.538 615.635L663.067 528.462C663.067 528.462 701.105 469.027 721.709 459.781C742.312 450.536 762.663 442.611 777.857 432.045C793.051 421.478 801.44 402.987 827.348 406.95C827.348 406.95 838.633 392.421 867.605 396.383C896.577 400.346 904.713 387.138 904.713 387.138L874.854 362.492L823.671 336.076L812.07 320.227L770.566 314.944L754.083 293.811L729.95 340.91L683.459 384.496Z" fill="url(#paint1_linear)"/>
</g>
<path d="M777.03 550.652C777.03 550.652 739.448 546.531 729.921 545.162C720.395 543.794 700.27 540.488 700.27 540.488L681.122 539.112L663.647 531.973L642.977 533.069C642.977 533.069 632.379 524.002 632.022 522.526C631.665 521.051 624.055 516.814 624.055 516.814C624.055 516.814 605.377 521.562 599.627 520.309C596.435 519.57 592.837 519.236 589.236 519.344L580.63 512.461C580.63 512.461 576.252 511.909 577.511 505.867C578.77 499.824 573.114 493.23 573.114 493.23L564.357 491.301L550.565 496.247C550.565 496.247 554.962 508.068 554.962 508.892C554.962 509.716 550.565 519.344 550.565 519.344H540.55L522.379 521.916L508.606 526.631L502.968 527.142L491.694 521.916C491.694 521.916 493.573 527.596 484.798 519.344C476.023 511.093 481.04 510.813 476.041 511.101C471.043 511.39 464.128 515.503 464.128 515.503L455.992 506.963H450.355L440.339 499.544C440.339 499.544 434.702 500.096 433.443 501.193C432.184 502.289 422.169 518.182 422.169 518.182C422.169 518.182 419.67 524.29 417.791 524.422C415.911 524.554 405.877 528.997 405.877 528.997L400.879 536.095L368.935 534.99L340.749 534.446L333.233 532.517L316.321 519.328L319.44 501.193L311.304 498.448C311.304 498.448 303.168 499.544 303.168 493.23C303.168 486.915 281.859 487.459 285.617 477.84C289.375 468.22 301.289 458.608 297.531 454.206C293.772 449.804 271.844 443.49 267.466 429.757C263.087 416.024 263.069 414.095 253.673 411.894C244.278 409.693 244.917 402.826 244.917 396.504C244.917 390.181 238.641 391.558 234.263 384.691C229.884 377.824 213.593 360.786 213.593 360.786C213.593 360.786 207.956 370.949 204.818 374.527C201.68 378.105 199.819 388.541 199.819 393.206C199.819 397.872 191.664 404.203 191.664 404.203C183.528 407.22 187.286 417.664 187.286 423.986C187.286 430.309 202.319 454.486 193.543 459.432C184.768 464.378 180.39 466.027 181.029 468.5C181.668 470.973 189.052 477.568 181.029 484.434C173.005 491.301 169.172 495.975 167.875 501.473C166.579 506.971 156.601 520.474 156.601 520.474C156.601 520.474 145.327 512.189 146.567 506.963C147.807 501.737 149.705 498.448 149.705 494.054C149.705 489.66 154.083 488.284 155.962 483.61C157.841 478.936 159.1 469.044 159.1 469.044C157.069 463.593 156.02 458.081 155.962 452.558C155.962 443.77 150.325 431.677 150.325 431.677C150.325 431.677 144.068 423.706 138.43 419.585C132.793 415.463 124.657 416.287 125.277 408.868C125.897 401.449 127.156 390.461 121.519 385.787C115.882 381.113 108.365 380.297 107.745 374.799C107.125 369.301 114.003 358.865 107.745 352.814C101.488 346.764 115.168 345.395 107.745 339.353C100.323 333.311 93.9906 334.135 90.2325 329.733C87.8903 327.055 84.0059 324.69 78.9582 322.867V316C78.9582 316 71.4419 317.096 70.2017 322.867C68.9616 328.637 63.9257 331.11 64.5646 334.135C65.2034 337.16 72.0808 348.973 61.4265 355.287C50.7722 361.602 47.6154 374.799 47.6154 374.799C47.6154 374.799 43.2184 390.733 41.9782 392.662C40.7381 394.591 34.462 441.297 26.3069 446.243C18.1517 451.189 9.39531 460.801 9.39531 460.801L0 484.434V560H1440V436.071C1440 436.071 1429.97 422.61 1423.09 412.718C1416.21 402.826 1421.21 401.449 1413.69 396.231C1406.18 391.014 1406.18 379.745 1401.16 378.096C1396.14 376.448 1397.4 389.085 1392.38 393.206C1387.37 397.328 1389.89 410.517 1386.13 413.814C1382.37 417.112 1381.11 425.083 1381.11 425.083C1381.11 425.083 1372.35 426.459 1367.34 426.179C1362.32 425.899 1365.46 430.301 1359.82 433.598C1355.49 435.985 1350.66 438.193 1345.41 440.193C1345.41 440.193 1343.53 448.164 1339.15 451.733C1334.77 455.303 1334.77 459.976 1332.89 465.475C1331.01 470.973 1331.63 475.639 1327.88 473.446C1324.12 471.253 1325.38 467.123 1325.38 467.123C1325.38 467.123 1317.86 466.571 1317.86 463.554V453.11C1317.86 453.11 1307.83 444.867 1304.71 438C1301.59 431.133 1303.45 424.531 1299.07 423.986C1294.69 423.442 1297.81 437.176 1294.05 439.368C1290.3 441.561 1281.52 450.909 1280.9 455.031C1280.28 459.152 1282.16 466.027 1279.64 468.22C1277.12 470.412 1270.88 474.27 1271.5 481.961C1272.12 489.652 1274.64 493.774 1268.37 497.623C1262.09 501.473 1251.45 505.595 1250.21 509.716C1248.97 513.838 1246.46 519.608 1246.46 519.608C1246.46 519.608 1243.94 513.014 1240.82 508.068C1237.7 503.122 1231.42 496.527 1231.42 496.527C1231.42 496.527 1223.27 483.61 1217.63 479.76C1211.99 475.911 1215.13 466.571 1210.75 465.747C1206.38 464.922 1202.6 475.919 1202.6 475.919C1202.6 475.919 1190.08 486.355 1188.21 492.405C1186.33 498.456 1185.07 502.569 1185.07 502.569C1185.07 502.569 1161.26 503.946 1156.88 508.068C1152.5 512.189 1146.87 516.814 1146.87 516.814C1146.87 516.814 1139.35 517.894 1136.83 520.812C1134.18 523.437 1131.03 525.962 1127.44 528.362L1112.4 528.412L1099.25 528.997C1099.25 528.997 1063.55 536.095 1059.17 536.639C1054.79 537.183 1054.15 529.179 1050.4 527.142C1046.64 525.106 1046.64 519.633 1046.64 519.633C1046.64 519.633 1042.26 520.416 1041.64 524.406C1041.01 527.41 1039.96 530.394 1038.5 533.341L1010.94 539.392C1010.94 539.392 973.354 542.689 965.218 543.514C957.081 544.338 920.12 550.652 920.12 550.652L901.329 552.581C901.329 552.581 853.526 553.405 849.862 553.677C846.198 553.949 805.497 552.301 805.497 552.301L777.03 550.652Z" fill="#1F1E24"/>
<rect x="-2" y="3" width="1442" height="121" fill="url(#paint2_linear)"/>
</g>
<defs>
<linearGradient id="paint0_linear" x1="569.667" y1="1208.9" x2="569.667" y2="409.474" gradientUnits="userSpaceOnUse">
<stop offset="0.0260417" stop-color="#24232B"/>
<stop offset="0.140625" stop-color="#C4C4C4"/>
<stop offset="0.463542" stop-color="#1F1E24"/>
<stop offset="0.864583" stop-color="#1F1E24"/>
<stop offset="1" stop-color="#363445"/>
</linearGradient>
<linearGradient id="paint1_linear" x1="610.86" y1="293.811" x2="610.86" y2="901.374" gradientUnits="userSpaceOnUse">
<stop offset="0.9999" stop-color="#323041"/>
<stop offset="1" stop-color="#323041" stop-opacity="0"/>
</linearGradient>
<linearGradient id="paint2_linear" x1="719" y1="3" x2="719" y2="124" gradientUnits="userSpaceOnUse">
<stop/>
<stop offset="1" stop-color="#1F1E24"/>
</linearGradient>
<clipPath id="clip0">
<rect width="1440" height="558" fill="white"/>
</clipPath>
</defs>
</svg>
