<svg width="125" height="125" viewBox="0 0 125 125" fill="none" xmlns="http://www.w3.org/2000/svg">
<path d="M72.4774 5.97571C74.2779 6.59671 75.95 7.54118 77.4119 8.76277C78.5593 9.75872 79.5864 10.8992 80.7097 12.0157L81.0547 10.7306H81.2232C83.053 13.5951 83.8982 16.9794 83.6303 20.3688L84.8819 19.4934C84.8819 20.6098 84.9622 21.678 84.8819 22.7061C84.7011 24.9301 84.2897 27.1293 83.6543 29.2681C82.6547 32.6221 81.0203 35.7524 78.8402 38.4887C77.2875 40.463 75.4453 42.1907 73.3761 43.6131C71.5434 44.8111 69.4746 45.6 67.3102 45.9262C65.5765 46.2232 63.8216 46.379 62.0628 46.3921C58.7794 46.35 55.539 45.6395 52.5387 44.3038C50.824 43.6033 49.2061 42.6855 47.7245 41.573C45.2629 39.6492 43.3734 37.0885 42.2605 34.1676C41.3098 31.7137 40.752 29.1251 40.6076 26.4971C40.48 24.6549 40.5256 22.8048 40.744 20.9712C40.7529 20.8187 40.7529 20.6659 40.744 20.5134C40.6959 20.5134 40.6557 20.5134 40.6317 20.5134L39.8293 20.923C39.7593 20.6612 39.7269 20.3908 39.733 20.1198C40.078 18.2083 40.7921 16.4974 42.5493 15.4292C42.8703 15.2364 42.8141 14.9794 42.79 14.6823C42.5711 12.8305 42.7433 10.9533 43.2955 9.1724C43.484 8.44391 43.9394 7.81309 44.5713 7.40538C44.7477 7.32235 44.9301 7.25254 45.1169 7.19654C45.2773 8.26478 45.2533 9.31696 45.9192 10.1603C45.9362 10.3618 46.0016 10.5563 46.11 10.727C46.2183 10.8977 46.3663 11.0396 46.5413 11.1406C46.7163 11.2417 46.9132 11.2988 47.115 11.3071C47.3169 11.3154 47.5178 11.2747 47.7005 11.1884C47.7916 11.1588 47.8858 11.14 47.9813 11.1322C49.3213 11.0278 50.6612 10.9474 51.9931 10.8109C52.3217 10.7797 52.6327 10.6479 52.8837 10.4334C53.608 9.72115 54.499 9.20201 55.4754 8.92342C56.1494 8.75475 56.8554 8.69047 57.5535 8.57803L57.6016 8.77882C57.3128 9.01175 56.9276 9.18846 56.7592 9.49367C56.2306 10.3952 55.7641 11.3317 55.363 12.2968C55.18 12.7137 55.161 13.1845 55.3097 13.6148C55.4585 14.0452 55.7641 14.4035 56.1654 14.618C57.446 15.5263 58.9433 16.0804 60.5062 16.2244C60.9314 16.2645 61.0117 16.4653 60.9234 16.8509C60.6821 17.5363 60.1963 18.1084 59.5594 18.4572C58.8854 18.9552 58.1232 19.3407 57.385 19.7825C57.7202 20.2394 57.9586 20.7601 58.0855 21.3126C58.2125 21.865 58.2253 22.4376 58.1232 22.9952C58.0509 23.4772 57.9306 23.5896 57.4251 23.4611C56.5199 23.2293 55.5965 23.0761 54.665 23.0033C53.8626 22.9471 53.4614 23.3968 53.5978 23.9832C53.7587 24.9918 54.208 25.9321 54.8915 26.6904C55.575 27.4488 56.4634 27.9926 57.4492 28.2561C57.9262 28.4278 58.4344 28.4951 58.9396 28.4535C59.4448 28.412 59.9352 28.2625 60.3778 28.0152C61.2342 27.526 62.1676 27.1865 63.1379 27.0112C63.8898 26.9121 64.6528 27.0741 65.2997 27.4703C65.9466 27.8664 66.4382 28.4726 66.6924 29.1878C64.9696 29.4941 63.402 30.3778 62.2473 31.6937C61.6709 32.3485 60.8799 32.7758 60.0167 32.8985C59.0459 33.0752 58.059 33.1234 57.048 33.2359C58.7972 34.7313 60.8506 35.8276 63.0657 36.4486C64.8167 36.9374 66.6857 36.7689 68.3212 35.9748C70.0477 35.0477 71.4481 33.6122 72.333 31.8624C72.6459 31.2922 72.9267 30.7058 73.2236 30.1275H73.4001L73.6649 32.6817C74.0237 32.1279 74.3505 31.554 74.6438 30.9629C75.3236 29.1433 75.5974 27.1969 75.4462 25.2602C75.4462 24.4571 75.3659 23.7101 75.3258 22.8507C76.3127 23.1398 76.5213 23.9832 76.9305 24.7623C78.102 21.9672 77.3879 19.3167 76.6337 16.6742L76.762 16.5457L78.2705 17.132C77.931 15.0119 76.7798 13.1075 75.061 11.8229C73.66 10.8284 72.1036 10.0738 70.4555 9.59005C70.287 9.53383 70.1586 9.34106 70.0061 9.21255C70.1586 9.05995 70.2789 8.83505 70.4635 8.77882C70.8856 8.6643 71.3143 8.5758 71.7473 8.51378C71.0332 6.97969 69.5087 6.9074 68.2731 6.29698C68.8655 6.13224 69.473 6.02731 70.0864 5.98375C70.8647 6.01588 71.6751 6.00784 72.4774 5.97571Z" fill="#C75305"/>
<path d="M72.4774 5.97571C71.6751 5.97571 70.8727 5.9757 70.0703 6.07208C69.457 6.11565 68.8495 6.2206 68.257 6.38534C69.4846 6.99576 71.0171 7.06803 71.7312 8.60212C71.2983 8.66413 70.8696 8.75266 70.4475 8.86718C70.2709 8.93144 70.1425 9.15634 69.9901 9.30091C70.1345 9.42942 70.2629 9.62219 70.4394 9.67841C72.0876 10.1622 73.644 10.9167 75.045 11.9113C76.7637 13.1959 77.9149 15.1002 78.2544 17.2203L76.746 16.634L76.6176 16.7625C77.3718 19.413 78.0859 22.0555 76.9145 24.8506C76.5133 24.0474 76.3047 23.2442 75.3098 22.939C75.3499 23.7422 75.406 24.5454 75.4301 25.3486C75.5814 27.2853 75.3075 29.2317 74.6278 31.0512C74.3344 31.6423 74.0076 32.2162 73.6489 32.77L73.3841 30.2159H73.2076C72.9107 30.7942 72.6299 31.3805 72.3169 31.9508C71.432 33.7005 70.0316 35.136 68.3051 36.0631C66.6696 36.8572 64.8006 37.0258 63.0497 36.537C60.8346 35.916 58.7811 34.8197 57.032 33.3242C58.0429 33.2118 59.0298 33.1636 60.0007 32.9869C60.8639 32.8642 61.6549 32.4369 62.2313 31.7821C63.386 30.4661 64.9535 29.5824 66.6763 29.2762C66.4221 28.561 65.9305 27.9548 65.2836 27.5586C64.6368 27.1625 63.8737 27.0004 63.1219 27.0995C62.1516 27.2748 61.2182 27.6144 60.3618 28.1035C59.9192 28.3508 59.4288 28.5003 58.9236 28.5419C58.4184 28.5835 57.9101 28.5162 57.4331 28.3445C56.4474 28.0809 55.559 27.5371 54.8755 26.7788C54.192 26.0205 53.7426 25.0801 53.5818 24.0715C53.4454 23.4852 53.8626 23.0354 54.6489 23.0916C55.5804 23.1645 56.5039 23.3176 57.4091 23.5494C57.9146 23.6699 58.0349 23.5494 58.1071 23.0836C58.2092 22.526 58.1964 21.9534 58.0695 21.4009C57.9425 20.8484 57.7041 20.3278 57.3689 19.8708C58.1071 19.4291 58.8694 19.0677 59.5434 18.5456C60.1803 18.1968 60.6661 17.6247 60.9074 16.9392C60.9956 16.5617 60.9074 16.3609 60.4901 16.3127C58.9273 16.1688 57.43 15.6147 56.1494 14.7063C55.748 14.4918 55.4425 14.1335 55.2937 13.7032C55.1449 13.2728 55.164 12.8021 55.347 12.3851C55.7481 11.4201 56.2146 10.4835 56.7431 9.58201C56.9116 9.28483 57.2967 9.10011 57.5856 8.86718L57.5374 8.66639C56.8474 8.77883 56.1413 8.84308 55.4593 9.01175C54.483 9.29035 53.5919 9.80951 52.8677 10.5217C52.6167 10.7363 52.3057 10.8681 51.9771 10.8992C50.6452 11.0358 49.3052 11.1161 47.9653 11.2205C47.8698 11.2283 47.7756 11.2472 47.6844 11.2767C47.5017 11.363 47.3008 11.4037 47.099 11.3954C46.8971 11.3871 46.7003 11.33 46.5252 11.229C46.3502 11.128 46.2022 10.986 46.0939 10.8153C45.9856 10.6446 45.9202 10.4502 45.9032 10.2487C47.7642 8.43707 49.9045 6.93732 52.2419 5.80704C54.6303 4.63499 57.2092 3.90052 59.8563 3.63843C64.1991 3.21498 68.5733 4.02503 72.4774 5.97571Z" fill="#044DA0"/>
<path d="M32.6561 86.6478H46.3926V86.7442L39.8774 89.0092C40.2224 89.6437 40.5353 90.2622 40.8884 90.8565C42.9964 94.4645 45.4671 97.8474 48.2621 100.953C52.0909 105.307 56.7046 108.901 61.8621 111.547C62.0073 111.63 62.1703 111.678 62.3377 111.687C62.5051 111.695 62.6721 111.664 62.8249 111.595C64.9555 110.709 66.9345 109.495 68.6902 107.997C70.2949 106.647 71.8997 105.25 73.376 103.756C76.3405 100.762 79.0938 97.5653 81.6163 94.1898C82.9722 92.3665 84.3122 90.5353 85.6281 88.712C85.671 88.6299 85.706 88.5438 85.7324 88.455L80.4047 86.7603V86.6639H91.9346C91.2205 88.2221 90.5786 89.8284 89.7683 91.3384C88.4361 93.8888 86.8929 96.3229 85.1547 98.6153C83.7586 100.422 82.3945 102.262 80.838 103.916C78.9169 105.952 76.8951 107.89 74.7801 109.723C72.8384 111.41 70.7683 112.936 68.6822 114.454C66.917 115.699 65.0234 116.767 63.178 117.908C62.9419 118.102 62.6497 118.214 62.3448 118.229C62.0398 118.243 61.7383 118.159 61.485 117.988C60.1531 117.113 58.7409 116.382 57.417 115.474C55.9086 114.454 54.4162 113.394 52.988 112.261C51.3833 110.976 49.7224 109.683 48.23 108.246C45.8975 106.091 43.7278 103.766 41.7389 101.29C40.3829 99.531 39.0108 97.772 37.7271 95.9407C35.9765 93.3931 34.4362 90.7069 33.1215 87.9088C33.0172 87.451 32.8086 87.0414 32.6561 86.6478Z" fill="#074E9F"/>
<path d="M79.3456 57.9178H79.2895L78.7038 57.8214H78.6476H78.5914L78.0057 57.7251H77.9495H77.8934L77.3076 57.6287H77.2515H77.2033L76.6176 57.5323H76.5614H76.5133L75.9276 57.4359H75.8714H75.8233L75.2376 57.3395H75.1814H75.1332L74.5475 57.2432H74.4914H74.4432L73.8575 57.1468H73.7291H73.681L73.0952 57.0504H73.0391H72.9909L72.3972 56.954H72.341H72.2929L71.8275 56.7452H90.8194C91.039 56.727 91.2564 56.6894 91.4693 56.6327V56.6327V53.0425V52.1268C91.516 51.9262 91.5455 51.722 91.5576 51.5164C91.5576 50.0145 91.4854 48.5205 91.4774 47.0186C91.4774 44.1914 91.4774 41.3963 91.4774 38.5289C91.4562 38.3109 91.4132 38.0957 91.349 37.8863C91.3203 37.8956 91.2894 37.8956 91.2607 37.8863C91.0599 37.8421 90.8561 37.8126 90.6509 37.798H86.2219C86.0213 37.798 85.8207 37.798 85.6362 37.798L85.4837 36.1916V35.7338C85.4837 35.1876 85.564 34.6415 85.572 34.1274C85.572 32.9628 85.572 31.7982 85.572 30.5693C85.925 30.5693 86.2139 30.5693 86.4947 30.5693C87.0403 30.5693 87.5859 30.489 88.0994 30.4488C88.6129 30.4087 89.1264 30.3364 89.6399 30.2641L101.001 28.6577C101.667 28.5613 102.341 28.4489 103.007 28.3445C103.03 28.4288 103.046 28.5147 103.055 28.6015C102.999 32.6576 102.999 36.7217 102.863 40.7778C102.735 44.6572 102.494 48.5286 102.237 52.408C102.061 55.451 101.658 58.4766 101.033 61.4599L100.119 61.6687L99.4368 61.5563L98.7548 61.4438L98.0728 61.3314L97.3908 61.2189L96.7088 61.1065L96.0268 60.994L95.3448 60.8816L94.6627 60.7691L93.9807 60.6567L93.2987 60.5442L92.6167 60.4318H92.4964L91.9187 60.3274H91.7983L91.2286 60.223H91.1083L90.5386 60.1186H90.4182L89.8405 60.0141H89.7202L89.1425 59.9097H89.0221L88.4444 59.8053H88.3241L87.7464 59.7009H87.634L87.0563 59.5965H86.944L86.3663 59.4921H86.254L85.6763 59.3877H85.564L84.9863 59.2832H84.9301H84.8739L84.2962 59.1788H84.1839L83.6062 59.0744H83.4939L82.9162 58.97H82.86H82.8038L82.2181 58.8656H82.1619H82.1058L81.5281 58.7612H81.4719H81.4157L80.838 58.6568H80.7819H80.7257L80.14 58.5604H80.0838H80.0277L79.3456 57.9178Z" fill="#044DA0"/>
<path d="M36.371 59.4037H36.2507L35.673 59.5081H35.5526L34.9749 59.6125H34.8626L34.2849 59.717H34.1645L33.5868 59.8214H33.4665L32.8888 59.9258H32.8085L32.2308 60.0302H32.1105L31.4285 60.1426L30.7465 60.2551L30.0645 60.3675L29.3825 60.48L28.7005 60.5924L28.0184 60.7049L27.3364 60.8173L26.6544 60.9298L25.9724 61.0422L25.2904 61.1547L24.6084 61.2671L23.6937 61.0422C23.6238 60.7775 23.5676 60.5095 23.5252 60.239C23.1 56.6407 22.5864 53.0103 22.2735 49.4362C21.9927 46.2234 21.8804 43.0107 21.8001 39.7577C21.7039 36.0069 21.7119 32.2479 21.6718 28.5131C21.6718 28.3445 21.6718 28.1758 21.6718 27.9429C23.1481 28.1838 24.5763 28.4328 26.0045 28.6497C28.2591 28.9951 30.5138 29.3324 32.7684 29.6376C34.0362 29.8143 35.3199 29.9267 36.5957 30.0633L39.1552 30.2561C39.1552 31.7901 39.1552 33.2841 39.1552 34.778C39.1697 34.9834 39.1992 35.1874 39.2435 35.3884V35.8462L39.083 37.4526H34.0763C33.8711 37.4672 33.6673 37.4967 33.4665 37.5409C33.4379 37.5507 33.4068 37.5507 33.3782 37.5409C33.3151 37.7093 33.272 37.8846 33.2498 38.063C33.207 42.411 33.1696 46.7562 33.1375 51.0987C33.1503 51.3228 33.1798 51.5457 33.2258 51.7654V52.681C33.2258 53.7573 33.1616 54.8336 33.1375 55.8938C33.1554 56.0195 33.1933 56.1415 33.2498 56.2552V56.2552C33.4627 56.3119 33.6802 56.3495 33.8997 56.3677H52.9077L52.4183 56.5765H52.3701H52.314L51.7202 56.6729H51.6721H51.6159L51.0302 56.7692H50.982H50.9259L50.3402 56.8656H50.292H50.2359L49.6501 56.962H49.602H49.5458L48.9521 57.0584H48.9039H48.8478L48.262 57.1548H48.2139H48.0534L47.4677 57.2512H47.4196H47.3634L46.7777 57.3475H46.7215H46.6653L46.0796 57.4439H46.0234H45.9673L45.3816 57.5403H45.3254H45.2692L44.6835 57.6447H44.6273H44.5712L43.9854 57.7411H43.9293H43.8731L43.2954 57.8455H43.2393H43.1831L42.5974 57.9499H42.5412H42.485L41.8993 58.0543H41.8431H41.787L41.2093 58.1588H41.0969L40.5192 58.2632H40.4069L39.8292 58.3676H39.773H39.7169L39.1392 58.472H39.0269L38.4491 58.5764H38.3368L37.7591 58.6808H37.6468L37.0691 58.7853H36.9568L36.371 59.4037Z" fill="#044DA0"/>
<path d="M32.6561 86.6479C32.8406 87.0495 33.0171 87.451 33.2017 87.8446C34.5164 90.6427 36.0567 93.3288 37.8072 95.8765C39.067 97.7077 40.439 99.4667 41.8191 101.226C43.808 103.702 45.9776 106.027 48.3102 108.181C49.8026 109.619 51.4394 110.912 53.0682 112.197C54.4964 113.322 55.9888 114.39 57.4972 115.41C58.8211 116.302 60.2252 117.016 61.5652 117.924C61.8185 118.095 62.12 118.179 62.425 118.164C62.7299 118.15 63.0221 118.037 63.2582 117.844C65.1036 116.711 66.9972 115.643 68.7624 114.39C70.8646 112.904 72.9266 111.346 74.8603 109.659C76.9753 107.826 78.9971 105.888 80.9182 103.852C82.4747 102.198 83.8468 100.358 85.2349 98.5511C86.973 96.2587 88.5163 93.8246 89.8484 91.2742C90.6508 89.7642 91.2927 88.1579 92.0148 86.5997C92.026 86.594 92.0384 86.5911 92.0509 86.5911C92.0635 86.5911 92.0758 86.594 92.087 86.5997C92.8172 86.5997 93.5473 86.5997 94.2775 86.6479C94.4709 86.681 94.6595 86.7376 94.8391 86.8165C92.9101 91.0429 90.5636 95.0655 87.8345 98.8242C86.1094 101.234 84.2399 103.483 82.3464 105.724C81.0356 107.257 79.6456 108.721 78.1821 110.109C75.4434 112.801 72.465 115.236 69.2839 117.386C67.1737 118.775 64.9592 119.988 62.8008 121.297C62.6698 121.384 62.5164 121.43 62.3595 121.43C62.2026 121.43 62.0492 121.384 61.9182 121.297C58.7263 119.527 55.6618 117.536 52.7472 115.338C49.2556 112.678 45.9993 109.722 43.0146 106.503C40.6977 104.029 38.553 101.399 36.5957 98.6314C34.3637 95.5005 32.3837 92.197 30.6742 88.7522C30.3533 88.0936 30.1046 87.3948 29.8237 86.7121L32.5839 86.6077C32.5984 86.6072 32.6128 86.6107 32.6255 86.6178C32.6383 86.6248 32.6488 86.6352 32.6561 86.6479V86.6479Z" fill="#C3550A"/>
<path d="M36.4834 30.1677C35.2077 30.0312 33.9239 29.9107 32.6562 29.742C30.4015 29.4368 28.1469 29.0995 25.8923 28.7541C24.4641 28.5373 23.0359 28.2883 21.5595 28.0473C21.5595 28.2802 21.5595 28.4489 21.5595 28.6176C21.5595 32.3765 21.5595 36.1354 21.6879 39.8622C21.7762 43.0749 21.8885 46.2877 22.1613 49.5406C22.4742 53.1469 22.9636 56.7693 23.413 60.3435C23.4553 60.6139 23.5116 60.882 23.5815 61.1467V61.5884C23.1081 61.6687 22.6427 61.7571 22.1693 61.8213C21.8323 61.8695 21.5675 61.9017 21.4873 61.4037C21.2225 59.6929 20.8374 57.9982 20.6127 56.2874C20.3239 54.0626 20.1233 51.8297 19.9227 49.5968C19.8023 48.2555 19.7141 46.9142 19.69 45.5809C19.5563 38.8234 19.4386 32.0659 19.337 25.3084C19.3343 25.2603 19.3343 25.212 19.337 25.1639C25.7559 27.204 32.4877 27.4208 39.1713 28.1196C39.1713 28.8023 39.1713 29.477 39.1713 30.1436L36.4834 30.1677Z" fill="#C3550A"/>
<path d="M101.098 61.1627C101.722 58.1795 102.125 55.1538 102.301 52.1108C102.55 48.2394 102.791 44.36 102.927 40.4806C103.063 36.4245 103.063 32.3604 103.12 28.3043C103.11 28.2175 103.094 28.1316 103.071 28.0473C102.397 28.1517 101.731 28.2642 101.066 28.3605L89.7041 29.9669C89.1905 30.0392 88.677 30.0954 88.1635 30.1517H85.5077V28.1276C92.1753 27.4289 98.8751 27.212 105.35 25.1639C105.35 25.2683 105.35 25.4289 105.35 25.5896C105.35 30.3284 105.35 35.0672 105.222 39.806C105.158 42.6894 104.957 45.5729 104.78 48.4483C104.652 50.5365 104.548 52.6329 104.291 54.7051C104.01 56.954 103.545 59.1708 103.2 61.4117C103.12 61.9097 102.855 61.8856 102.518 61.8294C102.044 61.7571 101.579 61.6767 101.106 61.5964C101.106 61.4519 101.103 61.3073 101.098 61.1627Z" fill="#C3550A"/>
<path d="M47.925 74.6L49.9149 71.1865L50.8216 69.6443C51.3592 68.7207 51.3752 68.7207 52.5627 68.9135V72.078C52.5627 73.6844 52.5627 75.2907 52.5627 76.8971C52.5627 77.5075 52.3701 77.7003 51.8085 77.62C51.5653 77.6049 51.3215 77.6049 51.0783 77.62V72.1905L50.974 72.1423C50.8858 72.2627 50.7895 72.3832 50.7092 72.5117L48.5027 76.2305C48.1577 76.8088 47.6362 76.8088 47.2832 76.2305C46.4808 74.9052 45.6784 73.5719 44.7557 72.2627V73.1382C44.7557 74.4474 44.7557 75.7566 44.7557 77.0658C44.7557 77.4995 44.6113 77.6361 44.186 77.628C43.2392 77.628 43.2392 77.628 43.2392 76.6963C43.2392 74.343 43.2392 71.9977 43.2392 69.6443C43.2392 69.3632 43.0306 68.9054 43.5201 68.8412C44.0095 68.7769 44.4588 68.6805 44.7958 69.291C45.7908 71.074 46.8418 72.7687 47.925 74.6Z" fill="white"/>
<path d="M39.5565 74.7607C40.078 75.4996 40.5915 76.2225 41.097 76.9453C41.1944 77.1221 41.2751 77.3076 41.3377 77.4995C41.1451 77.5477 40.9526 77.612 40.76 77.6521C40.458 77.7332 40.1364 77.6951 39.8616 77.5456C39.5869 77.3962 39.38 77.1467 39.2837 76.8489C39.2464 76.7837 39.2034 76.7219 39.1553 76.6642C37.9277 74.9133 37.9277 74.9133 35.6891 75.0578C35.6891 75.7165 35.6891 76.3831 35.6891 77.0417C35.6891 77.4594 35.5848 77.62 35.1435 77.62C34.1165 77.62 34.1165 77.62 34.1165 76.5999C34.1165 74.1904 34.1165 71.829 34.1165 69.4355C34.1165 68.9697 34.2448 68.7849 34.7343 68.801C35.9458 68.8492 37.1414 68.801 38.361 68.8813C38.841 68.8931 39.3113 69.019 39.7331 69.2488C40.1548 69.4785 40.5159 69.8055 40.7864 70.2026C41.0569 70.5998 41.229 71.0557 41.2886 71.5326C41.3482 72.0096 41.2935 72.4939 41.1291 72.9455C40.9125 73.7085 40.5514 74.1181 39.5565 74.7607ZM35.7292 70.303V73.6603C36.5316 73.6603 37.3339 73.7085 38.1363 73.6603C38.5789 73.6603 39.0034 73.4843 39.3164 73.171C39.6294 72.8577 39.8052 72.4327 39.8052 71.9897C39.8052 71.5466 39.6294 71.1216 39.3164 70.8083C39.0034 70.495 38.5789 70.319 38.1363 70.319C37.3179 70.2548 36.5316 70.303 35.7212 70.303H35.7292Z" fill="white"/>
<path d="M57.8985 73.9575C57.5133 74.3751 57.0961 74.7607 56.7912 75.1703C56.6795 75.3161 56.6151 75.4927 56.6067 75.6763C56.6067 76.1743 56.6067 76.6803 56.6067 77.1783C56.6067 77.5317 56.4783 77.6441 56.1333 77.6602C55.0341 77.7003 55.0341 77.7164 55.0341 76.6C55.0341 74.1904 55.0341 71.8612 55.0341 69.4918C55.0341 68.8251 55.355 68.8412 55.8364 68.8492C56.3178 68.8572 56.6388 68.801 56.6388 69.4757C56.5906 70.6965 56.6388 71.8853 56.6388 72.9535L60.0007 69.8211C60.1344 69.7113 60.2531 69.5844 60.3537 69.4436C60.803 68.7046 61.5332 68.8171 62.2072 68.8733C62.6966 68.9135 62.496 69.2026 62.2874 69.4195L59.2866 72.5519C59.1886 72.6377 59.0839 72.7156 58.9736 72.7848L61.8702 76.3028C62.1029 76.5839 62.3436 76.857 62.5682 77.1461C62.6404 77.2345 62.7046 77.4031 62.6645 77.4835C62.6244 77.5638 62.4559 77.628 62.3355 77.6361C61.9739 77.7203 61.5953 77.6925 61.2499 77.5562C60.9046 77.4199 60.6088 77.1816 60.4019 76.873C59.6717 75.8691 58.7891 74.9775 57.8985 73.9575Z" fill="white"/>
<path d="M68.3693 70.2869C66.8367 70.2869 65.4326 70.2869 64.0365 70.2869C63.3866 70.2869 63.3946 69.9897 63.3786 69.4837C63.3625 68.9777 63.4909 68.7769 64.0445 68.785C65.914 68.785 67.7755 68.785 69.661 68.785C69.9419 68.785 70.4153 68.7849 70.4634 68.9697C70.5514 69.1725 70.5808 69.3959 70.5482 69.6146C70.5156 69.8333 70.4223 70.0384 70.2789 70.2066C69.0753 71.6604 67.8718 73.1382 66.7324 74.6161L65.5128 76.2064C65.7536 76.2064 65.914 76.2546 66.0745 76.2546C67.4225 76.2546 68.7704 76.2546 70.0863 76.2546C70.664 76.2546 70.6881 76.5196 70.6881 76.9614C70.6881 77.4032 70.6881 77.6923 70.1024 77.6843C68.1045 77.6843 66.0905 77.6843 64.1007 77.6843C63.8369 77.6882 63.5759 77.6305 63.3384 77.5156C63.2876 77.1117 63.3545 76.7017 63.531 76.3349C64.3334 75.2506 65.1999 74.2225 66.0504 73.1784L68.3693 70.2869Z" fill="white"/>
<path d="M90.1133 77.355C90.9317 75.513 91.7474 73.6737 92.5605 71.8371C92.9536 70.9616 93.3628 70.1022 93.74 69.2107C93.9566 68.6806 94.3658 68.8814 94.7108 68.8573C95.0558 68.8332 95.3286 68.7769 95.5132 69.1946C96.6846 71.821 97.8801 74.4474 99.0757 77.0658C99.2682 77.4915 99.1719 77.6762 98.6985 77.6521C98.5063 77.6363 98.3131 77.6363 98.1208 77.6521C98.0518 77.6675 97.9804 77.6691 97.9108 77.6569C97.8412 77.6446 97.7746 77.6187 97.715 77.5807C97.6554 77.5426 97.6038 77.4931 97.5633 77.4351C97.5228 77.3771 97.4942 77.3117 97.479 77.2425C97.2543 76.6723 97.1099 75.9092 96.6766 75.6362C96.2433 75.3631 95.449 75.5317 94.8231 75.5237C94.1973 75.5157 93.6276 75.5237 93.0339 75.5237C92.9511 75.5075 92.8659 75.508 92.7833 75.5252C92.7007 75.5423 92.6223 75.5758 92.5528 75.6237C92.4833 75.6716 92.4241 75.7329 92.3785 75.804C92.333 75.8751 92.3021 75.9546 92.2877 76.0378C92.1673 76.3992 91.9828 76.7445 91.8303 77.0979C91.7528 77.2457 91.6438 77.3747 91.5111 77.4757C91.3784 77.5767 91.2251 77.6474 91.0621 77.6826C90.8991 77.7178 90.7304 77.7168 90.5678 77.6796C90.4053 77.6424 90.2528 77.57 90.1213 77.4674C90.1221 77.4298 90.1195 77.3921 90.1133 77.355ZM96.1551 74.2225C95.8903 73.5961 95.6496 73.0338 95.4089 72.4796C95.1681 71.9254 94.9114 71.3873 94.6065 70.7448L93.8041 72.5358L93.074 74.2225H96.1551Z" fill="white"/>
<path d="M32.1106 69.6202C32.1158 69.671 32.1158 69.7221 32.1106 69.7728C31.7094 70.8089 31.7255 70.7527 30.6744 70.4475C29.9902 70.2751 29.2853 70.1994 28.5802 70.2226C28.2404 70.2641 27.9227 70.4132 27.6735 70.6483C27.5648 70.7304 27.4788 70.8389 27.4236 70.9635C27.3683 71.088 27.3456 71.2247 27.3577 71.3604C27.3697 71.4962 27.416 71.6267 27.4924 71.7396C27.5687 71.8524 27.6724 71.944 27.7939 72.0057C28.2029 72.215 28.6333 72.3793 29.0777 72.4957C29.7196 72.6965 30.3775 72.833 31.0033 73.074C31.4118 73.2001 31.7716 73.4488 32.0342 73.7864C32.2969 74.124 32.4495 74.5341 32.4716 74.9614C32.5185 75.415 32.4299 75.8723 32.2171 76.2755C32.0043 76.6786 31.6769 77.0096 31.2761 77.2264C30.4183 77.6161 29.4764 77.7836 28.5369 77.7135C27.5975 77.6433 26.6908 77.3377 25.9003 76.8248C25.3066 76.3509 25.9003 76.0217 26.0447 75.6361C26.1892 75.2506 26.47 75.5237 26.6946 75.6361C27.1529 75.9403 27.6666 76.1508 28.2064 76.2556C28.7462 76.3603 29.3013 76.3573 29.8399 76.2465C30.1917 76.1675 30.5109 75.9825 30.7546 75.7164C31.1638 75.2586 30.9311 74.608 30.2651 74.343C29.7356 74.1341 29.1579 74.0217 28.6123 73.853C28.1499 73.7309 27.6945 73.5834 27.2483 73.4113C26.8546 73.2736 26.5111 73.0209 26.2622 72.6859C26.0134 72.3509 25.8705 71.9489 25.8522 71.5318C25.8035 71.0983 25.8787 70.66 26.069 70.2675C26.2593 69.8751 26.557 69.5448 26.9273 69.315C27.7398 68.8978 28.649 68.706 29.5606 68.7597C30.4721 68.8134 31.3526 69.1105 32.1106 69.6202V69.6202Z" fill="white"/>
<path d="M90.1133 77.355C90.1163 77.3897 90.1163 77.4246 90.1133 77.4594C89.311 77.5236 88.5728 77.62 87.8025 77.6441C86.6471 77.6441 85.4917 77.6441 84.3363 77.6441C84.0394 77.6441 83.7987 77.6441 83.7987 77.2264C83.7987 74.5679 83.7987 71.9093 83.7987 69.2508C83.8254 69.1562 83.8754 69.0699 83.9441 68.9997C84.0128 68.9296 84.098 68.8778 84.1919 68.8492C85.3072 68.7127 85.3473 68.7689 85.3473 69.9014C85.3473 71.8076 85.3473 73.7138 85.3473 75.6201V76.2305C86.6471 76.2305 87.8908 76.2305 89.1344 76.2305C89.6881 76.2305 89.9849 76.3189 89.8806 76.9453C89.8967 77.0739 90.0411 77.2184 90.1133 77.355Z" fill="white"/>
<path d="M77.8692 76.2465C79.2413 76.2465 80.5411 76.2465 81.881 76.2465C82.4427 76.2465 82.4588 76.5116 82.4347 76.9212C82.4106 77.3308 82.555 77.7244 81.8971 77.6762C80.2282 77.6762 78.5512 77.6762 76.8823 77.6762C76.449 77.6762 76.3207 77.5155 76.3207 77.0979C76.3207 74.5384 76.3207 71.9789 76.3207 69.4194C76.3207 68.9937 76.4571 68.809 76.8823 68.8572C77.0344 68.8717 77.1876 68.8717 77.3397 68.8572C77.7649 68.8572 77.9013 69.0098 77.9013 69.4355C77.9013 71.572 77.9013 73.7085 77.9013 75.861L77.8692 76.2465Z" fill="white"/>
<path d="M47.861 96.9849V92.6718C48.2381 92.6718 48.6633 92.4228 48.904 92.9047C49.337 92.6549 49.8369 92.5463 50.3344 92.5938C50.8318 92.6413 51.3022 92.8425 51.6802 93.1697C51.9436 92.9381 52.2553 92.7682 52.5926 92.6723C52.9298 92.5764 53.2842 92.5571 53.6299 92.6155C54.0112 92.6153 54.3775 92.7635 54.6515 93.0289C54.9256 93.2942 55.0858 93.6558 55.0983 94.0372C55.1544 95.009 55.0983 95.997 55.0983 96.9929H54.1354C54.1354 96.1897 54.1354 95.4749 54.1354 94.7279C54.1354 93.9809 53.7824 93.4348 53.1485 93.4268C52.5147 93.4187 52.0092 93.9327 51.9851 94.744C51.961 95.5552 51.9851 96.2058 51.9851 96.9768H50.9821C50.9821 96.2138 50.9821 95.4668 50.9821 94.7199C50.9821 93.9729 50.6371 93.4348 49.9952 93.4268C49.3534 93.4187 48.8639 93.9408 48.8479 94.752C48.8318 95.5632 48.8479 96.2138 48.8479 96.9768L47.861 96.9849Z" fill="white"/>
<path d="M73.8254 73.2507C73.8254 74.5197 73.8254 75.7888 73.8254 77.0578C73.8254 77.5076 73.713 77.7164 73.2477 77.6602C73.1518 77.6471 73.0547 77.6471 72.9588 77.6602C72.4132 77.7405 72.2287 77.5317 72.2367 76.9614C72.2367 74.4796 72.2367 71.9977 72.2367 69.5159C72.2367 68.8332 72.5657 68.8412 73.0391 68.8412C73.5125 68.8412 73.8414 68.8412 73.8414 69.4998C73.7853 70.7447 73.8254 71.9977 73.8254 73.2507Z" fill="white"/>
<path d="M76.6176 97.0893L75.6628 96.8644C75.5829 96.8535 75.5019 96.8535 75.4221 96.8644C74.8915 96.9496 74.3547 96.9899 73.8173 96.9848C73.5098 96.9499 73.2259 96.8029 73.0197 96.5718C72.8135 96.3407 72.6996 96.0417 72.6996 95.7319C72.6996 95.422 72.8135 95.123 73.0197 94.8919C73.2259 94.6608 73.5098 94.5138 73.8173 94.4789C74.387 94.4227 74.9567 94.4789 75.5264 94.4789C75.5745 93.7882 75.3017 93.4267 74.724 93.4187C74.3802 93.3925 74.0359 93.462 73.7291 93.6195C73.1353 94.005 72.9267 93.6838 72.8144 93.2099C73.2519 92.8538 73.7855 92.6361 74.347 92.5846C74.9086 92.5331 75.4728 92.6501 75.9677 92.9207C76.2856 93.1873 76.4942 93.5619 76.5534 93.9729C76.6737 94.9688 76.6176 95.9728 76.6176 97.0893ZM75.6066 95.0813C75.136 95.0893 74.6667 95.1323 74.2025 95.2098C74.0926 95.2497 73.9942 95.3159 73.9158 95.4027C73.8375 95.4896 73.7816 95.5943 73.7531 95.7078C73.7753 95.8219 73.8219 95.9298 73.8898 96.0241C73.9577 96.1184 74.0452 96.1968 74.1463 96.2539C74.3237 96.331 74.5189 96.3581 74.7106 96.332C74.9022 96.306 75.0831 96.2279 75.2336 96.1062C75.3841 95.9846 75.4984 95.824 75.5641 95.6419C75.6299 95.4598 75.6446 95.2631 75.6066 95.0732V95.0813Z" fill="white"/>
<path d="M56.1412 94.8323C56.1761 94.2392 56.436 93.6819 56.8678 93.2743C57.2996 92.8668 57.8706 92.6398 58.4641 92.6398C59.0576 92.6398 59.6286 92.8668 60.0604 93.2743C60.4922 93.6819 60.7521 94.2392 60.7869 94.8323C60.7521 95.4253 60.4922 95.9826 60.0604 96.3902C59.6286 96.7978 59.0576 97.0248 58.4641 97.0248C57.8706 97.0248 57.2996 96.7978 56.8678 96.3902C56.436 95.9826 56.1761 95.4253 56.1412 94.8323V94.8323ZM58.444 93.4187C58.2659 93.4258 58.0909 93.4685 57.9295 93.5442C57.768 93.6199 57.6233 93.7271 57.5037 93.8595C57.3841 93.9918 57.2922 94.1468 57.2332 94.3152C57.1742 94.4836 57.1494 94.6622 57.1603 94.8403C57.1505 95.0227 57.1773 95.2051 57.2389 95.377C57.3004 95.5489 57.3957 95.7068 57.5189 95.8415C57.6422 95.9761 57.7911 96.0847 57.9568 96.1611C58.1225 96.2374 58.3018 96.2799 58.4841 96.286C58.8401 96.2442 59.1678 96.0715 59.4035 95.8013C59.6393 95.5312 59.7663 95.1829 59.7599 94.8242C59.7632 94.4722 59.6337 94.1318 59.3972 93.8712C59.1606 93.6106 58.8346 93.449 58.4841 93.4187H58.444Z" fill="white"/>
<path d="M65.0715 96.286V97.033H61.2202C61.3071 96.7106 61.4338 96.4003 61.5973 96.1093C62.2553 95.2419 62.9533 94.3985 63.7075 93.4588H61.3887V92.7279H65.1518C65.0496 93.0614 64.9096 93.3821 64.7346 93.6837C64.0927 94.5351 63.4027 95.3543 62.6565 96.286H65.0715Z" fill="white"/>
<path d="M72.4533 91.5553L70.335 97.6114H69.6049C69.6771 97.3463 69.7332 97.1134 69.8135 96.8965C70.3751 95.2902 70.9689 93.6838 71.4984 92.0774C71.6669 91.5473 71.8916 91.3545 72.4533 91.5553Z" fill="white"/>
<path d="M70.2628 91.5553L68.1125 97.6033H67.3823C67.4545 97.3382 67.5107 97.1053 67.5909 96.8804C68.1526 95.274 68.7464 93.6676 69.2759 92.0613C69.4685 91.5472 69.7172 91.3545 70.2628 91.5553Z" fill="white"/>
<path d="M67.0614 93.242C67.0655 93.3297 67.0496 93.4172 67.015 93.4979C66.9803 93.5785 66.9276 93.6503 66.8611 93.7075C66.7946 93.7648 66.716 93.8062 66.6311 93.8285C66.5462 93.8508 66.4574 93.8535 66.3714 93.8363C65.9862 93.8363 65.7535 93.6355 65.7535 93.2339C65.7535 92.8323 66.0344 92.6155 66.4757 92.6235C66.917 92.6315 67.0534 92.8484 67.0614 93.242Z" fill="white"/>
<path d="M65.7054 96.5913C65.7937 95.9086 66.1227 95.8282 66.5078 95.8604C66.8929 95.8925 67.0454 96.1816 67.0133 96.5431C67.0117 96.6313 66.9888 96.7178 66.9465 96.7952C66.9042 96.8726 66.8438 96.9387 66.7704 96.9876C66.6971 97.0366 66.613 97.067 66.5253 97.0763C66.4377 97.0856 66.3491 97.0735 66.2671 97.0411C66.0585 96.9768 65.8579 96.7037 65.7054 96.5913Z" fill="white"/>
<path d="M94.8151 86.8566C94.6354 86.7777 94.4468 86.7211 94.2534 86.688C93.5233 86.688 92.7931 86.688 92.063 86.6398C92.8653 86.6398 93.6677 86.6398 94.4219 86.6398C94.5904 86.6478 94.6867 86.7844 94.8151 86.8566Z" fill="#074E9F"/>
<path d="M32.5839 86.6478L29.8237 86.7522C30.265 86.7522 30.7063 86.6638 31.1476 86.6478C31.5889 86.6317 32.1024 86.6478 32.5839 86.6478Z" fill="#074E9F"/>
</svg>
